<svg width="100" height="99" viewBox="0 0 100 99" fill="none" xmlns="http://www.w3.org/2000/svg">
<rect x="50.2827" y="0.707107" width="69" height="69" rx="1.5" transform="rotate(45 50.2827 0.707107)" stroke="url(#paint0_linear_317_45)" stroke-opacity="0.7"/>
<path opacity="0.8" d="M61.1733 48.291L50.105 38.6846C50.02 38.6113 49.9116 38.5703 49.7974 38.5703H47.2046C46.9878 38.5703 46.8882 38.8398 47.0522 38.9805L57.312 47.8867H40.1675C40.0386 47.8867 39.9331 47.9922 39.9331 48.1211V49.8789C39.9331 50.0078 40.0386 50.1133 40.1675 50.1133H57.3091L47.0493 59.0195C46.8853 59.1631 46.9849 59.4297 47.2017 59.4297H49.8823C49.938 59.4297 49.9937 59.4092 50.0347 59.3711L61.1733 49.709C61.2748 49.6208 61.3561 49.5119 61.4118 49.3896C61.4675 49.2672 61.4964 49.1344 61.4964 49C61.4964 48.8656 61.4675 48.7328 61.4118 48.6104C61.3561 48.4881 61.2748 48.3792 61.1733 48.291Z" fill="#171717"/>
<defs>
<linearGradient id="paint0_linear_317_45" x1="117.99" y1="1.58909" x2="52.4059" y2="67.1732" gradientUnits="userSpaceOnUse">
<stop stop-color="#B39153"/>
<stop offset="1" stop-color="#B39153" stop-opacity="0"/>
</linearGradient>
</defs>
</svg>
