<svg width="99" height="99" viewBox="0 0 99 99" fill="none" xmlns="http://www.w3.org/2000/svg">
<rect y="-0.707107" width="69" height="69" rx="1.5" transform="matrix(-0.707106 -0.707107 0.707106 -0.707107 49.9968 97.7881)" stroke="url(#paint0_linear_317_44)" stroke-opacity="0.7"/>
<path opacity="0.8" d="M38.5403 49.709L49.6086 59.3155C49.6936 59.3887 49.802 59.4297 49.9163 59.4297L52.509 59.4297C52.7258 59.4297 52.8254 59.1602 52.6614 59.0196L42.4016 50.1133L59.5461 50.1133C59.675 50.1133 59.7805 50.0079 59.7805 49.879L59.7805 48.1212C59.7805 47.9922 59.675 47.8868 59.5461 47.8868L42.4045 47.8868L52.6643 38.9805C52.8284 38.837 52.7288 38.5704 52.512 38.5704L49.8313 38.5704C49.7756 38.5704 49.72 38.5909 49.679 38.629L38.5403 48.2911C38.4389 48.3793 38.3575 48.4882 38.3018 48.6105C38.2461 48.7328 38.2173 48.8657 38.2173 49.0001C38.2173 49.1345 38.2461 49.2673 38.3018 49.3896C38.3575 49.5119 38.4389 49.6209 38.5403 49.709Z" fill="#171717"/>
<defs>
<linearGradient id="paint0_linear_317_44" x1="67.7074" y1="1.58909" x2="2.12321" y2="67.1732" gradientUnits="userSpaceOnUse">
<stop stop-color="#B39153"/>
<stop offset="1" stop-color="#B39153" stop-opacity="0"/>
</linearGradient>
</defs>
</svg>
