<svg width="390" height="43" viewBox="0 0 390 43" fill="none" xmlns="http://www.w3.org/2000/svg">
<path d="M-251.957 22.6215L-290 4.22599V44H683V17.6497L643.949 32.565L542.164 25.3559L509.16 10.4407L468.597 32.565L417.201 17.6497L347.665 32.565L309.622 17.6497L286.695 37.0395L238.826 5.9661L221.946 17.6497L171.558 34.3051L75.3159 0L51.1295 11.1864L41.3037 5.9661L-30.7517 33.8079L-124.978 10.4407L-207.867 31.8192L-240.115 17.8983L-251.957 22.6215Z" fill="#FCFCFC"/>
<path d="M-220.943 31.1067L-291 15.6533V42H683V30.3467L545.405 15.6533L444.099 30.3467L379.334 10.5867L290.376 30.3467L131.865 25.0267L92.0479 30.3467L-17.0704 4L-210.61 33.8933L-219.935 30.3467L-220.943 31.1067Z" fill="white"/>
</svg>
