<svg width="22" height="22" viewBox="0 0 22 22" fill="none" xmlns="http://www.w3.org/2000/svg">
<path d="M20.3059 2.75195H1.69409C0.761181 2.75195 0 3.51314 0 4.44605V17.5532C0 18.4861 0.761181 19.2473 1.69409 19.2473H20.3059C21.2388 19.2473 22 18.4861 22 17.5532V4.44605C22 3.51314 21.2388 2.75195 20.3059 2.75195ZM20.0599 4.00512L11.116 11.6541L2.17215 4.00512H20.0599ZM20.7468 17.5532C20.7468 17.7946 20.5473 17.9942 20.3059 17.9942H1.69409C1.45274 17.9942 1.25316 17.7946 1.25316 17.5532V4.86841L10.7076 12.9536C10.7122 12.9583 10.7215 12.9629 10.7262 12.9676C10.7308 12.9722 10.7401 12.9769 10.7447 12.9815C10.7586 12.9908 10.7679 13.0001 10.7819 13.0047C10.7865 13.0093 10.7911 13.0093 10.7958 13.014C10.8143 13.0233 10.8329 13.0326 10.8515 13.0418C10.8561 13.0418 10.8608 13.0465 10.8654 13.0465C10.8793 13.0511 10.8932 13.0604 10.9118 13.065C10.9165 13.065 10.9257 13.0697 10.9304 13.0697C10.9443 13.0743 10.9582 13.079 10.9722 13.079C10.9768 13.079 10.9861 13.0836 10.9907 13.0836C11.0046 13.0882 11.0232 13.0882 11.0371 13.0929C11.0418 13.0929 11.0464 13.0929 11.0511 13.0929C11.0696 13.0929 11.0928 13.0975 11.1114 13.0975C11.13 13.0975 11.1532 13.0975 11.1717 13.0929C11.1764 13.0929 11.181 13.0929 11.1857 13.0929C11.1996 13.0929 11.2181 13.0882 11.2321 13.0836C11.2367 13.0836 11.246 13.079 11.2506 13.079C11.2646 13.0743 11.2785 13.0697 11.2924 13.0697C11.297 13.0697 11.3063 13.065 11.311 13.065C11.3249 13.0604 11.3388 13.0558 11.3574 13.0465C11.362 13.0465 11.3667 13.0418 11.3713 13.0418C11.3899 13.0326 11.4084 13.0233 11.427 13.014C11.4316 13.0093 11.4363 13.0093 11.4409 13.0047C11.4549 12.9954 11.4641 12.9908 11.4781 12.9815C11.4827 12.9769 11.492 12.9722 11.4966 12.9676C11.5013 12.9629 11.5105 12.9583 11.5152 12.9536L20.7468 5.06799V17.5532Z" fill="#62BAAF"/>
</svg>
